<?xml version="1.0" standalone="no"?>
<!DOCTYPE svg PUBLIC "-//W3C//DTD SVG 20010904//EN"
 "http://www.w3.org/TR/2001/REC-SVG-20010904/DTD/svg10.dtd">
<svg version="1.0" xmlns="http://www.w3.org/2000/svg"
 width="512.000000pt" height="512.000000pt" viewBox="0 0 512.000000 512.000000"
 preserveAspectRatio="xMidYMid meet">
<metadata>
Created by potrace 1.14, written by Peter Selinger 2001-2017
</metadata>
<g transform="translate(0.000000,512.000000) scale(0.100000,-0.100000)"
fill="#000000" stroke="none">
<path d="M2429 5115 c-2 -1 -29 -5 -59 -9 -243 -25 -522 -137 -724 -292 -320
-247 -523 -590 -584 -994 -4 -25 -7 -128 -7 -230 1 -211 12 -283 76 -474 21
-65 39 -122 39 -126 0 -4 -17 -11 -37 -16 -21 -4 -40 -8 -43 -9 -114 -26 -331
-131 -452 -218 -98 -71 -223 -186 -288 -267 -25 -30 -48 -56 -52 -58 -5 -2 -8
-10 -8 -17 0 -7 -4 -15 -8 -17 -13 -5 -72 -102 -119 -193 -79 -155 -125 -308
-152 -497 -8 -60 -7 -336 2 -388 2 -14 7 -45 11 -70 10 -61 52 -209 76 -270
117 -296 313 -541 576 -718 119 -80 346 -181 464 -206 14 -3 45 -10 70 -15
116 -25 375 -35 495 -19 383 51 733 245 979 543 28 33 51 62 53 64 1 2 20 -7
40 -21 174 -118 400 -203 626 -236 68 -9 347 -9 417 1 259 38 546 162 736 319
63 52 204 197 251 258 135 176 243 414 282 620 6 30 13 69 16 85 11 53 13 328
4 395 -26 188 -64 318 -139 475 -169 357 -475 635 -839 765 l-88 32 12 70 c17
97 16 354 0 457 -55 332 -190 596 -425 832 -125 126 -223 200 -370 277 -111
59 -302 125 -427 148 -76 14 -394 29 -404 19z"/>
</g>
</svg>
